# Blender 4.4.3
# www.blender.org
mtllib Untitled.mtl
o Cube
v 1.000000 1.000000 -1.000000
v 1.000000 -1.000000 -1.000000
v 1.000000 1.000000 1.000000
v -0.635646 -1.000000 -0.854919
v -0.635646 1.000000 -0.854919
v 1.000000 -1.000000 1.000000
v -1.000000 1.000000 -1.000000
v -1.000000 -1.000000 -1.000000
v -1.000000 1.000000 1.000000
v 0.635646 -1.000000 -0.854919
v 0.635646 1.000000 -0.854919
v -1.000000 -1.000000 1.000000
v -0.635646 1.000000 1.000000
v 0.635646 1.000000 1.000000
v -0.635646 -1.000000 1.000000
v 0.635646 -1.000000 1.000000
vn -0.0000 1.0000 -0.0000
vn -0.0000 -0.0000 1.0000
vn -1.0000 -0.0000 -0.0000
vn -0.0000 -1.0000 -0.0000
vn 1.0000 -0.0000 -0.0000
vn -0.0000 -0.0000 -1.0000
vt 0.625000 0.750000
vt 0.625000 0.500000
vt 0.875000 0.500000
vt 0.875000 0.750000
vt 0.829456 0.750000
vt 0.829456 0.518135
vt 0.670544 0.518135
vt 0.670544 0.750000
vt 0.625000 1.000000
vt 0.375000 1.000000
vt 0.375000 0.954456
vt 0.625000 0.954456
vt 0.375000 0.795544
vt 0.375000 0.750000
vt 0.625000 0.795544
vt 0.375000 0.000000
vt 0.625000 0.000000
vt 0.625000 0.250000
vt 0.375000 0.250000
vt 0.170544 0.750000
vt 0.125000 0.750000
vt 0.125000 0.500000
vt 0.375000 0.500000
vt 0.329456 0.750000
vt 0.329456 0.518135
vt 0.170544 0.518135
vt 0.625000 0.000633
vt 0.375000 0.000633
vt 0.375000 0.749367
vt 0.625000 0.749367
s 0
usemtl Material
f 3/1/1 1/2/1 7/3/1 9/4/1 13/5/1 5/6/1 11/7/1 14/8/1
f 9/9/2 12/10/2 15/11/2 13/12/2
f 16/13/2 6/14/2 3/1/2 14/15/2
f 12/16/3 9/17/3 7/18/3 8/19/3
f 15/20/4 12/21/4 8/22/4 2/23/4 6/14/4 16/24/4 10/25/4 4/26/4
f 2/23/5 1/2/5 3/1/5 6/14/5
f 8/19/6 7/18/6 1/2/6 2/23/6
f 13/27/5 15/28/5 4/19/5 5/18/5
f 5/18/2 4/19/2 10/23/2 11/2/2
f 16/29/3 14/30/3 11/2/3 10/23/3
